PathFileType	4	(X/Y/Z)	Patient5_TMGait_0pt45_1_right_03.trc.trc
DataRate	CameraRate	NumFrames	NumMarkers	Units	OrigDataRate	OrigDataStartFrame	OrigNumFrames
60.085836909871	60.085836909871	4	32	mm	60.085836909871	53	       141
Frame#	Time	R.ASIS			L.ASIS			Chest			R.Shoulder			Neck			L.Shoulder			L.Elbow			L.Wrist			R.Elbow			R.Wrist			L.Thigh.Superior			L.Thigh.Lateral			L.Thigh.Inferior			L.Patella			L.Shank.Superior			L.Shank.Lateral			L.Shank.Inferior			L.Heel			L.Midfoot.Lateral			L.Midfoot.Superior			L.Toe			R.Thigh.Superior			R.Thigh.Lateral			R.Thigh.Inferior			R.Patella			R.Shank.Superior			R.Shank.Lateral			R.Shank.Inferior			R.Heel			R.Midfoot.Lateral			R.Midfoot.Superior			R.Toe			
		X1	Y1	Z1	X2	Y2	Z2	X3	Y3	Z3	X4	Y4	Z4	X5	Y5	Z5	X6	Y6	Z6	X7	Y7	Z7	X8	Y8	Z8	X9	Y9	Z9	X10	Y10	Z10	X11	Y11	Z11	X12	Y12	Z12	X13	Y13	Z13	X14	Y14	Z14	X15	Y15	Z15	X16	Y16	Z16	X17	Y17	Z17	X18	Y18	Z18	X19	Y19	Z19	X20	Y20	Z20	X21	Y21	Z21	X22	Y22	Z22	X23	Y23	Z23	X24	Y24	Z24	X25	Y25	Z25	X26	Y26	Z26	X27	Y27	Z27	X28	Y28	Z28	X29	Y29	Z29	X30	Y30	Z30	X31	Y31	Z31	X32	Y32	Z32	

53	5.335428571429	942.080351785873	964.323954693552	613.147599185879	914.830908967374	959.206468283453	376.975214619893	1013.356697075046	1423.765227635586	516.115770698051	936.183088254668	1481.507506401520	695.495908891097	882.100029485851	1547.204411793440	518.059157642357	930.330058599417	1500.766487909083	330.149941550716	817.972882237200	1190.329804141694	205.569843977738	932.244416000696	926.945901638578	185.109025689118	893.236074158991	1161.976620603994	847.351552408072	1105.566480303183	978.542403163056	774.007311272078	995.108636608524	791.543651591559	344.508515894618	960.178030534245	707.065429881474	290.137428042010	1057.341410550666	680.606972525070	344.684674922714	1107.748884764495	544.532476073659	323.864620428262	1043.007004303560	437.337578545569	344.179765172595	949.984091476578	393.042244023760	275.915066393726	980.597760689220	326.581490313462	353.965407061801	796.164248615790	132.588092046803	364.657695391686	865.474712456910	98.034605431091	287.153064229610	979.970691112153	132.841883717862	314.203427340450	1071.649857314099	72.209983729967	294.302934690828	930.930385250135	730.278291114300	623.601630172876	836.326465314163	658.962042225662	675.057730765075	906.089737079960	602.346778182325	594.256045225073	897.637439284381	507.527157355642	616.618342503776	852.083184996501	418.782129905894	575.319859386083	784.916595184916	347.063148875464	655.183735648857	837.429609707523	280.531032005988	567.078694809217	718.552461717054	53.440007418461	518.205075740813	792.323530421866	25.113061108052	596.548693760017	899.612259256376	87.641517633574	578.733727246666	1003.414587530266	44.269135700363	586.226614021154	
54	5.352071428571	941.322552874633	962.977175086462	612.563722187006	914.382066797831	958.206907182080	377.076109177903	1014.813626497745	1422.874310407994	515.010684396855	937.622549549249	1481.757846522642	694.185363703965	883.898761063335	1546.758687387376	516.361235685444	932.154082742221	1499.242102315412	328.637648624869	819.676703130077	1188.391329834381	205.226156092950	933.931859012451	924.971599410079	185.558678294043	892.927360963973	1163.181579993365	847.437550671002	1105.114484355523	979.790452873708	773.767581786442	992.849700211659	790.375177546089	344.257352582216	958.096097392159	705.771776750411	289.910572189422	1055.084923772127	679.664286814294	344.831594031845	1107.604209064344	547.038097294034	323.834613078572	1050.754584360361	438.122528638822	344.438978801427	960.913871863650	386.731959819769	276.975017815216	998.451463483698	322.509137479883	354.207913343834	831.335122119950	114.160050973498	366.962188699282	901.819645845824	84.762098952518	288.290918717593	1013.857327044170	128.426610222618	312.842863741470	1109.660105133656	74.791536105846	291.407209482743	927.537794544318	729.345575814382	623.352523472552	832.291500023823	658.830281985407	674.814305369918	901.449158620339	601.562911741289	594.031396489103	892.357328709781	506.814607770421	616.376636238165	846.235968585039	418.633150891465	575.160193676785	778.527811184715	347.310038893014	654.962798156691	830.882048124358	280.464536078035	567.080695451038	711.038560747158	53.453113681656	518.213309683613	784.749522401591	25.107442930636	596.520963199032	892.013592163897	87.525476757776	578.712327073152	995.785341317984	44.292419768857	586.282662417775	
55	5.368714285714	940.646425004985	961.623007535930	612.132679628233	914.362190694601	956.908650646738	377.051539700910	1016.345207088737	1421.858497475824	513.694793603439	939.057112241394	1481.759482744197	692.601271002973	885.751352351959	1546.175363726340	514.384000592070	934.211161719863	1497.661113241411	326.877153616699	821.553787965493	1186.360917573592	204.697205257165	935.774442226654	922.905930503800	185.694824355955	892.360161873798	1164.034900234876	846.961926376332	1104.246929493817	980.293932113903	773.496781130314	990.308222797724	788.159928275358	343.549975864060	955.159091775808	703.368201497814	289.763384588044	1052.171876422248	677.444152097636	344.624415776175	1106.200063418787	548.468212149755	323.843609737998	1057.298550746098	438.492846019752	345.039519271518	971.341357307298	380.175766317058	278.221435734995	1015.568282777134	318.868947762444	354.763437756381	866.729737281686	97.931774517149	369.155297908534	938.419865764868	72.870759432689	289.993172837456	1047.314569861362	124.971043952416	312.333727475539	1146.562918879538	78.126389587679	290.391195138054	924.333662924440	728.455855339024	623.089976786043	828.384816224011	658.735605182385	674.448548646443	897.036154638219	600.838313453174	593.817398899410	887.302055494111	506.136776170181	616.162074654266	840.598773403426	418.465026357078	574.961755867489	772.227858387026	347.583977215582	654.644490216640	824.468337738110	280.397095101158	567.070715793450	703.541975779724	53.482628836853	518.227321914857	777.170659253905	25.118511637753	596.505578216728	884.429631063027	87.401916029538	578.686796984376	988.158240044351	44.313090079688	586.330666250848	
56	5.385357142857	940.092194870090	960.368940103198	611.845793159364	914.892948680418	955.402665511982	376.875355238624	1017.904947979452	1420.743842438358	512.180052433894	940.433773932190	1481.561499476108	690.722113971683	887.611572948883	1545.485817636270	512.102276938582	936.521806825116	1496.033607425654	324.861445946633	823.632537698164	1184.284670370272	203.899099596694	937.793527497483	920.786494583952	185.545214808425	891.603796418546	1164.569881889297	845.909450399170	1102.973008425054	979.994201687315	773.212840446329	987.694668789173	784.951871352859	342.452484227328	951.591974848022	699.914896397293	289.790550415315	1048.832123794199	674.032152374040	344.218045818175	1103.746509594248	548.803865341177	324.157577034817	1062.577829948692	438.364471872567	346.214096311323	980.911655327521	373.561651199807	279.917329251923	1031.415919819459	315.654371986731	355.847936928017	901.003670822632	84.151434999230	371.284603556413	974.100073586924	62.606090113768	292.339890661108	1079.330186250696	122.498951330812	312.929412170493	1181.436850802511	82.072621060258	291.529753511145	921.473365734603	727.647246526062	622.803588221655	824.754387793813	658.693975334176	673.932999350495	893.028921028611	600.181732952964	593.601142975247	882.619149246943	505.489269826890	615.953999694167	835.312832807589	418.261344058687	574.706542942054	766.126938569985	347.897467742193	654.208223873832	818.268634073668	280.311901136005	567.020257844610	696.054271462644	53.525220755271	518.232414680252	769.594073802604	25.149857695038	596.496266676636	876.862158866067	87.279385962500	578.669755212018	980.541790146138	44.321434613064	586.362334459096	
